<?xml version="1.0" standalone="no"?><!DOCTYPE svg PUBLIC "-//W3C//DTD SVG 1.1//EN" "http://www.w3.org/Graphics/SVG/1.1/DTD/svg11.dtd"><svg t="1732461339772" class="icon" viewBox="0 0 1024 1024" version="1.1" xmlns="http://www.w3.org/2000/svg" p-id="6238" xmlns:xlink="http://www.w3.org/1999/xlink" width="32" height="32"><path d="M269.470682 0v269.470682H0V32.322032A32.322032 32.322032 0 0 1 32.322032 0zM0 377.255152h269.470682v269.489696H0zM0 754.529318h269.470682v269.470682H32.322032a32.322032 32.322032 0 0 1-32.322032-32.322032zM377.274165 0h269.470683v269.470682H377.274165zM377.274165 377.255152h269.470683v269.489696H377.274165zM377.274165 754.529318h269.470683v269.470682H377.274165zM1024 32.322032v237.14865H754.529318V0h237.129637a32.322032 32.322032 0 0 1 32.341045 32.322032zM754.529318 377.255152h269.470682v269.489696H754.529318zM754.529318 754.529318h269.470682v237.14865a32.322032 32.322032 0 0 1-32.322032 32.322032H754.529318z" fill="#040000" p-id="6239"></path></svg>