<?xml version="1.0" standalone="no"?><!DOCTYPE svg PUBLIC "-//W3C//DTD SVG 1.1//EN" "http://www.w3.org/Graphics/SVG/1.1/DTD/svg11.dtd"><svg t="1732461363491" class="icon" viewBox="0 0 1025 1024" version="1.1" xmlns="http://www.w3.org/2000/svg" p-id="7221" xmlns:xlink="http://www.w3.org/1999/xlink" width="32.03125" height="32"><path d="M899.915294 361.411765c-62.162824-38.972235-133.360941-60.235294-207.209412-60.235294-46.863059 0-92.099765 8.673882-134.866824 24.335059l154.744471-154.744471c12.227765 6.144 25.780706 9.938824 40.357647 9.938824 49.814588 0 90.352941-40.538353 90.352941-90.352941s-40.538353-90.352941-90.352941-90.352941-90.352941 40.538353-90.352941 90.352941c0 13.251765 3.011765 25.780706 8.192 37.104941l-235.52 235.459765c-4.879059-0.843294-9.878588-1.505882-15.058824-1.505882-49.814588 0-90.352941 40.538353-90.352941 90.352941 0 5.12 0.662588 10.119529 1.505882 15.058824l-203.956706 203.956706c-11.324235-5.180235-23.792941-8.192-37.044706-8.192-49.814588 0-90.352941 40.538353-90.352941 90.352941s40.538353 90.352941 90.352941 90.352941 90.352941-40.538353 90.352941-90.352941c0-14.576941-3.794824-28.129882-9.938824-40.297412l154.804706-154.804706c-15.781647 43.068235-24.395294 88.726588-24.395294 134.866824 0 88.485647 36.864 164.743529 60.235294 204.257882l0 127.036235 180.705882 0 0-180.705882-140.709647 0c-25.178353-49.754353-39.996235-103.183059-39.996235-150.588235 0-53.428706 13.251765-106.255059 37.827765-153.298824 6.806588 1.626353 13.733647 2.710588 20.961882 2.710588 49.814588 0 90.352941-40.538353 90.352941-90.352941 0-10.842353-2.228706-21.082353-5.722353-30.72 99.026824-68.126118 231.725176-76.378353 338.462118-22.467765l0 143.540706 180.705882 0 0-180.705882-124.084706 0zM752.941176 60.235294c16.624941 0 30.117647 13.492706 30.117647 30.117647s-13.492706 30.117647-30.117647 30.117647-30.117647-13.492706-30.117647-30.117647 13.492706-30.117647 30.117647-30.117647zM90.352941 783.058824c-16.624941 0-30.117647-13.492706-30.117647-30.117647s13.492706-30.117647 30.117647-30.117647 30.117647 13.492706 30.117647 30.117647-13.492706 30.117647-30.117647 30.117647zM421.647059 903.529412l60.235294 0 0 60.235294-60.235294 0 0-60.235294zM420.201412 481.882353c-16.624941 0-30.117647-13.492706-30.117647-30.117647s13.492706-30.117647 30.117647-30.117647 30.117647 13.492706 30.117647 30.117647-13.492706 30.117647-30.117647 30.117647zM963.764706 481.882353l-60.235294 0 0-60.235294 60.235294 0 0 60.235294z" fill="#000000" p-id="7222"></path></svg>